<?xml version="1.0" encoding="UTF-8"?>
<svg width="700pt" height="700pt" version="1.1" viewBox="0 0 700 700" xmlns="http://www.w3.org/2000/svg" xmlns:xlink="http://www.w3.org/1999/xlink">
 <defs>
  <symbol id="u" overflow="visible">
   <path d="m18.766-1.125c-0.96875 0.5-1.9805 0.875-3.0312 1.125-1.043 0.25781-2.1367 0.39062-3.2812 0.39062-3.3984 0-6.0898-0.94531-8.0781-2.8438-1.9922-1.9062-2.9844-4.4844-2.9844-7.7344 0-3.2578 0.99219-5.8359 2.9844-7.7344 1.9883-1.9062 4.6797-2.8594 8.0781-2.8594 1.1445 0 2.2383 0.13281 3.2812 0.39062 1.0508 0.25 2.0625 0.625 3.0312 1.125v4.2188c-0.98047-0.65625-1.9453-1.1406-2.8906-1.4531-0.94922-0.3125-1.9492-0.46875-3-0.46875-1.875 0-3.3516 0.60547-4.4219 1.8125-1.0742 1.1992-1.6094 2.8555-1.6094 4.9688 0 2.1055 0.53516 3.7617 1.6094 4.9688 1.0703 1.1992 2.5469 1.7969 4.4219 1.7969 1.0508 0 2.0508-0.14844 3-0.45312 0.94531-0.3125 1.9102-0.80078 2.8906-1.4688z"/>
  </symbol>
  <symbol id="b" overflow="visible">
   <path d="m13.734-11.141c-0.4375-0.19531-0.87109-0.34375-1.2969-0.4375-0.41797-0.10156-0.83984-0.15625-1.2656-0.15625-1.2617 0-2.2305 0.40625-2.9062 1.2188-0.67969 0.80469-1.0156 1.9531-1.0156 3.4531v7.0625h-4.8906v-15.312h4.8906v2.5156c0.625-1 1.3438-1.7266 2.1562-2.1875 0.82031-0.46875 1.8008-0.70312 2.9375-0.70312 0.16406 0 0.34375 0.011719 0.53125 0.03125 0.19531 0.011719 0.47656 0.039062 0.84375 0.078125z"/>
  </symbol>
  <symbol id="a" overflow="visible">
   <path d="m17.641-7.7031v1.4062h-11.453c0.125 1.1484 0.53906 2.0078 1.25 2.5781 0.70703 0.57422 1.7031 0.85938 2.9844 0.85938 1.0312 0 2.082-0.14844 3.1562-0.45312 1.082-0.3125 2.1914-0.77344 3.3281-1.3906v3.7656c-1.1562 0.4375-2.3125 0.76562-3.4688 0.98438-1.1562 0.22656-2.3125 0.34375-3.4688 0.34375-2.7734 0-4.9297-0.70312-6.4688-2.1094-1.5312-1.4062-2.2969-3.3789-2.2969-5.9219 0-2.5 0.75391-4.4609 2.2656-5.8906 1.5078-1.4375 3.582-2.1562 6.2188-2.1562 2.4062 0 4.332 0.73047 5.7812 2.1875 1.4453 1.4492 2.1719 3.3828 2.1719 5.7969zm-5.0312-1.625c0-0.92578-0.27344-1.6719-0.8125-2.2344-0.54297-0.57031-1.25-0.85938-2.125-0.85938-0.94922 0-1.7188 0.26562-2.3125 0.79688s-0.96484 1.2969-1.1094 2.2969z"/>
  </symbol>
  <symbol id="k" overflow="visible">
   <path d="m9.2188-6.8906c-1.0234 0-1.793 0.17188-2.3125 0.51562-0.51172 0.34375-0.76562 0.85547-0.76562 1.5312 0 0.625 0.20703 1.1172 0.625 1.4688 0.41406 0.34375 0.98828 0.51562 1.7188 0.51562 0.92578 0 1.7031-0.32812 2.3281-0.98438 0.63281-0.66406 0.95312-1.4922 0.95312-2.4844v-0.5625zm7.4688-1.8438v8.7344h-4.9219v-2.2656c-0.65625 0.92969-1.3984 1.6055-2.2188 2.0312-0.82422 0.41406-1.8242 0.625-3 0.625-1.5859 0-2.8711-0.45703-3.8594-1.375-0.99219-0.92578-1.4844-2.1289-1.4844-3.6094 0-1.7891 0.61328-3.1016 1.8438-3.9375 1.2383-0.84375 3.1797-1.2656 5.8281-1.2656h2.8906v-0.39062c0-0.76953-0.30859-1.332-0.92188-1.6875-0.61719-0.36328-1.5703-0.54688-2.8594-0.54688-1.0547 0-2.0312 0.10547-2.9375 0.3125-0.89844 0.21094-1.7305 0.52344-2.5 0.9375v-3.7344c1.0391-0.25 2.0859-0.44141 3.1406-0.57812 1.0625-0.13281 2.125-0.20312 3.1875-0.20312 2.7578 0 4.75 0.54688 5.9688 1.6406 1.2266 1.0859 1.8438 2.8555 1.8438 5.3125z"/>
  </symbol>
  <symbol id="d" overflow="visible">
   <path d="m7.7031-19.656v4.3438h5.0469v3.5h-5.0469v6.5c0 0.71094 0.14062 1.1875 0.42188 1.4375s0.83594 0.375 1.6719 0.375h2.5156v3.5h-4.1875c-1.9375 0-3.3125-0.39844-4.125-1.2031-0.80469-0.8125-1.2031-2.1797-1.2031-4.1094v-6.5h-2.4219v-3.5h2.4219v-4.3438z"/>
  </symbol>
  <symbol id="j" overflow="visible">
   <path d="m12.766-13.078v-8.2031h4.9219v21.281h-4.9219v-2.2188c-0.66797 0.90625-1.4062 1.5703-2.2188 1.9844s-1.7578 0.625-2.8281 0.625c-1.8867 0-3.4336-0.75-4.6406-2.25-1.2109-1.5-1.8125-3.4258-1.8125-5.7812 0-2.3633 0.60156-4.2969 1.8125-5.7969 1.207-1.5 2.7539-2.25 4.6406-2.25 1.0625 0 2 0.21484 2.8125 0.64062 0.82031 0.42969 1.5664 1.0859 2.2344 1.9688zm-3.2188 9.9219c1.0391 0 1.8359-0.37891 2.3906-1.1406 0.55078-0.76953 0.82812-1.8828 0.82812-3.3438 0-1.457-0.27734-2.5664-0.82812-3.3281-0.55469-0.76953-1.3516-1.1562-2.3906-1.1562-1.043 0-1.8398 0.38672-2.3906 1.1562-0.55469 0.76172-0.82812 1.8711-0.82812 3.3281 0 1.4609 0.27344 2.5742 0.82812 3.3438 0.55078 0.76172 1.3477 1.1406 2.3906 1.1406z"/>
  </symbol>
  <symbol id="i" overflow="visible">
   <path d="m10.5-3.1562c1.0508 0 1.8516-0.37891 2.4062-1.1406 0.55078-0.76953 0.82812-1.8828 0.82812-3.3438 0-1.457-0.27734-2.5664-0.82812-3.3281-0.55469-0.76953-1.3555-1.1562-2.4062-1.1562-1.0547 0-1.8594 0.38672-2.4219 1.1562-0.55469 0.77344-0.82812 1.8828-0.82812 3.3281 0 1.4492 0.27344 2.5586 0.82812 3.3281 0.5625 0.77344 1.3672 1.1562 2.4219 1.1562zm-3.25-9.9219c0.67578-0.88281 1.4219-1.5391 2.2344-1.9688 0.82031-0.42578 1.7656-0.64062 2.8281-0.64062 1.8945 0 3.4453 0.75 4.6562 2.25 1.207 1.5 1.8125 3.4336 1.8125 5.7969 0 2.3555-0.60547 4.2812-1.8125 5.7812-1.2109 1.5-2.7617 2.25-4.6562 2.25-1.0625 0-2.0078-0.21094-2.8281-0.625-0.8125-0.42578-1.5586-1.0859-2.2344-1.9844v2.2188h-4.8906v-21.281h4.8906z"/>
  </symbol>
  <symbol id="h" overflow="visible">
   <path d="m0.34375-15.312h4.8906l4.125 10.391 3.5-10.391h4.8906l-6.4375 16.766c-0.64844 1.6953-1.4023 2.8828-2.2656 3.5625-0.86719 0.6875-2 1.0312-3.4062 1.0312h-2.8438v-3.2188h1.5312c0.83203 0 1.4375-0.13672 1.8125-0.40625 0.38281-0.26172 0.67969-0.73047 0.89062-1.4062l0.14062-0.42188z"/>
  </symbol>
  <symbol id="g" overflow="visible">
   <path d="m14.953-3.7188h-8.2188l-1.3125 3.7188h-5.2812l7.5625-20.406h6.2656l7.5625 20.406h-5.2812zm-6.9062-3.7812h5.5781l-2.7812-8.125z"/>
  </symbol>
  <symbol id="t" overflow="visible">
   <path d="m2.3594-21.281h4.8906v21.281h-4.8906z"/>
  </symbol>
  <symbol id="c" overflow="visible">
   <path d="m9.6406-12.188c-1.0859 0-1.9141 0.39062-2.4844 1.1719-0.57422 0.78125-0.85938 1.9062-0.85938 3.375s0.28516 2.5938 0.85938 3.375c0.57031 0.77344 1.3984 1.1562 2.4844 1.1562 1.0625 0 1.875-0.38281 2.4375-1.1562 0.57031-0.78125 0.85938-1.9062 0.85938-3.375s-0.28906-2.5938-0.85938-3.375c-0.5625-0.78125-1.375-1.1719-2.4375-1.1719zm0-3.5c2.6328 0 4.6914 0.71484 6.1719 2.1406 1.4766 1.418 2.2188 3.3867 2.2188 5.9062 0 2.5117-0.74219 4.4805-2.2188 5.9062-1.4805 1.418-3.5391 2.125-6.1719 2.125-2.6484 0-4.7148-0.70703-6.2031-2.125-1.4922-1.4258-2.2344-3.3945-2.2344-5.9062 0-2.5195 0.74219-4.4883 2.2344-5.9062 1.4883-1.4258 3.5547-2.1406 6.2031-2.1406z"/>
  </symbol>
  <symbol id="f" overflow="visible">
   <path d="m17.75-9.3281v9.3281h-4.9219v-7.1406c0-1.3203-0.03125-2.2344-0.09375-2.7344s-0.16797-0.86719-0.3125-1.1094c-0.1875-0.3125-0.44922-0.55469-0.78125-0.73438-0.32422-0.17578-0.69531-0.26562-1.1094-0.26562-1.0234 0-1.8242 0.39844-2.4062 1.1875-0.58594 0.78125-0.875 1.8711-0.875 3.2656v7.5312h-4.8906v-15.312h4.8906v2.2344c0.73828-0.88281 1.5195-1.5391 2.3438-1.9688 0.83203-0.42578 1.75-0.64062 2.75-0.64062 1.7695 0 3.1133 0.54688 4.0312 1.6406 0.91406 1.0859 1.375 2.6562 1.375 4.7188z"/>
  </symbol>
  <symbol id="e" overflow="visible">
   <path d="m12.422-21.281v3.2188h-2.7031c-0.6875 0-1.1719 0.125-1.4531 0.375-0.27344 0.25-0.40625 0.6875-0.40625 1.3125v1.0625h4.1875v3.5h-4.1875v11.812h-4.8906v-11.812h-2.4375v-3.5h2.4375v-1.0625c0-1.6641 0.46094-2.8984 1.3906-3.7031 0.92578-0.80078 2.3672-1.2031 4.3281-1.2031z"/>
  </symbol>
  <symbol id="s" overflow="visible">
   <path d="m0.42188-15.312h4.8906l3.8281 10.578 3.7969-10.578h4.9062l-6.0312 15.312h-5.375z"/>
  </symbol>
  <symbol id="r" overflow="visible">
   <path d="m16.547-12.766c0.61328-0.94531 1.3477-1.6719 2.2031-2.1719 0.85156-0.5 1.7891-0.75 2.8125-0.75 1.7578 0 3.0977 0.54688 4.0156 1.6406 0.92578 1.0859 1.3906 2.6562 1.3906 4.7188v9.3281h-4.9219v-7.9844-0.35938c0.007813-0.13281 0.015625-0.32031 0.015625-0.5625 0-1.082-0.16406-1.8633-0.48438-2.3438-0.3125-0.48828-0.82422-0.73438-1.5312-0.73438-0.92969 0-1.6484 0.38672-2.1562 1.1562-0.51172 0.76172-0.77344 1.8672-0.78125 3.3125v7.5156h-4.9219v-7.9844c0-1.6953-0.14844-2.7852-0.4375-3.2656-0.29297-0.48828-0.8125-0.73438-1.5625-0.73438-0.9375 0-1.6641 0.38672-2.1719 1.1562-0.51172 0.76172-0.76562 1.8594-0.76562 3.2969v7.5312h-4.9219v-15.312h4.9219v2.2344c0.60156-0.86328 1.2891-1.5156 2.0625-1.9531 0.78125-0.4375 1.6406-0.65625 2.5781-0.65625 1.0625 0 2 0.25781 2.8125 0.76562 0.8125 0.51172 1.4258 1.2305 1.8438 2.1562z"/>
  </symbol>
  <symbol id="q" overflow="visible">
   <path d="m17.75-9.3281v9.3281h-4.9219v-7.1094c0-1.3438-0.03125-2.2656-0.09375-2.7656s-0.16797-0.86719-0.3125-1.1094c-0.1875-0.3125-0.44922-0.55469-0.78125-0.73438-0.32422-0.17578-0.69531-0.26562-1.1094-0.26562-1.0234 0-1.8242 0.39844-2.4062 1.1875-0.58594 0.78125-0.875 1.8711-0.875 3.2656v7.5312h-4.8906v-21.281h4.8906v8.2031c0.73828-0.88281 1.5195-1.5391 2.3438-1.9688 0.83203-0.42578 1.75-0.64062 2.75-0.64062 1.7695 0 3.1133 0.54688 4.0312 1.6406 0.91406 1.0859 1.375 2.6562 1.375 4.7188z"/>
  </symbol>
  <symbol id="p" overflow="visible">
   <path d="m2.5781-20.406h5.875l7.4219 14v-14h4.9844v20.406h-5.875l-7.4219-14v14h-4.9844z"/>
  </symbol>
  <symbol id="o" overflow="visible">
   <path d="m2.1875-5.9688v-9.3438h4.9219v1.5312c0 0.83594-0.007813 1.875-0.015625 3.125-0.011719 1.25-0.015625 2.0859-0.015625 2.5 0 1.2422 0.03125 2.1328 0.09375 2.6719 0.070313 0.54297 0.17969 0.93359 0.32812 1.1719 0.20703 0.32422 0.47266 0.57422 0.79688 0.75 0.32031 0.16797 0.69141 0.25 1.1094 0.25 1.0195 0 1.8203-0.39062 2.4062-1.1719 0.58203-0.78125 0.875-1.8672 0.875-3.2656v-7.5625h4.8906v15.312h-4.8906v-2.2188c-0.74219 0.89844-1.5234 1.5586-2.3438 1.9844-0.82422 0.41406-1.7344 0.625-2.7344 0.625-1.7617 0-3.1055-0.53906-4.0312-1.625-0.92969-1.082-1.3906-2.6602-1.3906-4.7344z"/>
  </symbol>
  <symbol id="n" overflow="visible">
   <path d="m2.5781-20.406h8.7344c2.5938 0 4.582 0.57812 5.9688 1.7344 1.3945 1.1484 2.0938 2.7891 2.0938 4.9219 0 2.1367-0.69922 3.7812-2.0938 4.9375-1.3867 1.1562-3.375 1.7344-5.9688 1.7344h-3.4844v7.0781h-5.25zm5.25 3.8125v5.7031h2.9219c1.0195 0 1.8047-0.25 2.3594-0.75 0.5625-0.5 0.84375-1.2031 0.84375-2.1094 0-0.91406-0.28125-1.6172-0.84375-2.1094-0.55469-0.48828-1.3398-0.73438-2.3594-0.73438z"/>
  </symbol>
  <symbol id="m" overflow="visible">
   <path d="m2.3594-15.312h4.8906v15.031c0 2.0508-0.49609 3.6172-1.4844 4.7031-0.98047 1.082-2.4062 1.625-4.2812 1.625h-2.4219v-3.2188h0.85938c0.92578 0 1.5625-0.21094 1.9062-0.625 0.35156-0.41797 0.53125-1.2461 0.53125-2.4844zm0-5.9688h4.8906v4h-4.8906z"/>
  </symbol>
  <symbol id="l" overflow="visible">
   <path d="m14.719-14.828v3.9844c-0.65625-0.45703-1.3242-0.79688-2-1.0156-0.66797-0.21875-1.3594-0.32812-2.0781-0.32812-1.3672 0-2.4336 0.40234-3.2031 1.2031-0.76172 0.79297-1.1406 1.9062-1.1406 3.3438 0 1.4297 0.37891 2.543 1.1406 3.3438 0.76953 0.79297 1.8359 1.1875 3.2031 1.1875 0.75781 0 1.4844-0.10938 2.1719-0.32812 0.6875-0.22656 1.3203-0.56641 1.9062-1.0156v4c-0.76172 0.28125-1.5391 0.48828-2.3281 0.625-0.78125 0.14453-1.5742 0.21875-2.375 0.21875-2.7617 0-4.9219-0.70703-6.4844-2.125-1.5547-1.4141-2.3281-3.3828-2.3281-5.9062 0-2.5312 0.77344-4.5039 2.3281-5.9219 1.5625-1.4141 3.7227-2.125 6.4844-2.125 0.80078 0 1.5938 0.074219 2.375 0.21875 0.78125 0.13672 1.5547 0.35156 2.3281 0.64062z"/>
  </symbol>
 </defs>
 <g>
  <path d="m132.77 280.82c0.97656-1.4688 1.9297-3.1875 2.707-4.793 0.35938-0.75781 0.69531-1.7891 0.54688-2.1445 0.14844-0.1875-1.0547-0.27734-1.9102-0.25391-1.75 0.046875-3.5195 0.17578-5.2891 0.35547-0.61328 0.91406-2.7188 4.3789-2.7188 8.6445 0.15234 0.10156 1.1992 0.28906 4.7188 0.30078 0.72656-0.60938 1.3867-1.3125 1.9453-2.1094z"/>
  <path d="m120.74 303.45c0.097657 0.33984 0.24609 0.84375 0.43359 1.4531 0.85156 2.8516 2.2812 7.6172 2.5547 9.9883 0.41406 2.918 1.0117 3.2031 1.0156 3.2031 1.1875 0.10156 16.449 0.46484 19.359-0.45312-0.003906-0.25-0.046874-0.50391-0.046874-0.75l-0.003907-1.2422c-0.054687-8.3828-0.16016-23.984 16.613-38.23 5.8203-4.8047 17.512-10.406 31.34-10.406 14.434 0 24.238 6.3281 30.355 11.086 3.8984 3.0352 16.629 14.727 16.629 37.738 0 0.34766-0.023437 0.69141-0.03125 1.0391 1.4531-0.019531 5.2852-0.082031 10.875-0.19922-0.88672-3.8047-4.4531-20.52-4.4531-43.891 0-12.266 2.6172-17.324 4.3516-20.672 0.47656-0.91797 0.82422-1.6875 1.0742-2.4375-5.5664 0.039062-10.762 0.10156-15.391 0.18359-14.309 0.25781-25.867 0.68359-26.047 0.69141-11.078 1.0234-17.309 1.3086-20.992 1.3086-3.0312 0-4.3477-0.19141-5.2266-0.32031-0.49609-0.070313-1.3398-0.22266-1.668-0.78906-3.3008 0.65234-6.6836 1.3828-10.262 2.2461-21.551 5.1953-36.379 10.898-48.074 18.488-5.1914 3.3281-9.7656 7.2148-13.277 21.129-0.33203 1.7383-0.57813 3.3008-0.77344 4.7656 1.75 0.58984 7.4102 2.4805 8.4375 2.75 1.7188 0.44922 2.6719 1.4453 3.207 3.3203zm2.793-18.23c1.7617-0.25781 3.4805-0.34375 4.9727-0.93359-2.8984-0.10547-3.8008-0.47656-3.8008-1.6641 0-3.7148 1.4023-6.7773 2.3438-8.4219-1.3477 0.16406-2.6992 0.32812-4.0234 0.54688l-2.3711 0.39062 1.7852-1.6055c3.6211-3.2578 8.0938-5.125 12.316-7.1094 2.1562-0.94141 4.25-2.0078 6.5078-2.7109l6.6719-2.3047-6.2422 3.293c-2.043 1.1797-4.2422 2-6.3594 2.9961-3.4336 1.6094-6.9219 3.1562-9.9414 5.3164 2.8828-0.39844 5.7617-0.71094 8.707-0.78906 0.48438 0 0.96484 0 1.4844 0.050782 0.41797-0.003906 1.4336 0.22266 1.7344 1.0781 0.37891 1.4961-0.24609 2.3203-0.57031 3.25-0.86328 1.7734-1.7344 3.3516-2.8359 5.0156-0.62109 0.89062-1.3945 1.7031-2.2578 2.4141-0.082032 0.10938-0.19531 0.16406-0.32812 0.21094-0.60547 0.46484-1.2148 0.93359-1.9258 1.2383-1.9062 0.84766-3.9023 0.85547-5.707 1.1289-3.7227 0.5-7.5039 0.5-11.27 0.69141 3.6953-0.73438 7.375-1.6562 11.109-2.082z"/>
  <path d="m235.4 248.47c3.2227-0.058594 6.7656-0.10156 10.461-0.14062 0.97266-0.66797 14.121-9.6016 28.828-15.82 12.117-5.125 23.566-9.9609 23.637-11.895 0.042969-1.1094 0.042969-1.9727 0.03125-2.5586-8.457 2.0742-16.887 4.5625-25.336 7.582-17.473 6.2539-42.66 15.66-56.148 21.59l-0.011719 0.003907v0.003906c-0.027344 0.011719-1.8789 0.79297-4.125 1.8086 4.4648-0.14453 12.871-0.39844 22.664-0.57422z"/>
  <path d="m209.14 249.17c1.3516-0.65234 2.7578-1.293 3.9727-1.8359-9.8828 0.16797-19.027 1.0664-29.047 2.918 2.418 0.28516 7.6172 0.52734 25.074-1.082z"/>
  <path d="m144.28 320.53c-0.042969-0.49609-0.0625-0.98828-0.089844-1.4805-2.0781 0.48047-6.4727 0.61328-10.586 0.61328-4.6445 0-8.9023-0.16016-8.9844-0.16797-0.74609-0.0625-1.293-0.72266-1.707-1.9375-2.2305-0.40625-3.4766-1.3281-4.4336-2.1914-0.59766-0.54297-1.2031-1.3555-1.5469-1.8398-1.2656 0.29297-4.957 1.1523-6.293 1.5273-0.64453 0.17969-1.0703 0.39844-1.3398 0.57422 2.043 1.8555 7.0312 4.0586 15.32 4.9141 8.1484 0.83984 17.258 0.1875 19.66-0.011719z"/>
  <path d="m122.52 316.04c-0.0625-0.32031-0.13281-0.59375-0.1875-0.96094-0.26172-2.2656-1.7227-7.1445-2.5039-9.7656-0.1875-0.62109-0.33984-1.1289-0.4375-1.4727-0.3125-1.1016-0.76953-1.6562-1.3555-1.9961-0.67187 1.2266-1.0273 4.6797-1.0273 6.5703 0 1.1602 0.10938 2.4492 0.84375 3.9922 0.097656 0.14062 0.87109 1.2969 1.5625 1.9219 0.74219 0.67188 1.6328 1.3281 3.1055 1.7109z"/>
  <path d="m316.33 321.09c14.621-0.33984 29.984-0.76172 44.57-1.2148 1.0039-1.5195 2.582-3.9609 3.9766-6.2617-3.0938 0.58984-6.1914 1.1797-9.4844 1.6914-21.719 3.3789-61.191 4.9336-88.316 5.6289 13.258 0.41016 32.289 0.55078 49.254 0.15625z"/>
  <path d="m238.79 320.06c1.543-0.015625 5.5195-0.058594 11.203-0.16016-0.015626-0.67578-0.011719-1.332 0-1.8242-5.7422 0.12109-9.6602 0.18359-11.078 0.20312-0.027343 0.60156-0.074218 1.1875-0.125 1.7812z"/>
  <path d="m122.17 324.26c0.86719 0.18359 1.8672 0.64063 2.7188 1.3398-0.16016-0.88672-0.46094-1.7578-0.77344-2.4922-0.20703-0.48828-0.35547-0.89844-0.45703-1.2773-2.1641-0.25391-4.0547-0.58594-5.6953-0.96484 0.1875 0.16016 0.38672 0.32031 0.63281 0.4375 0.92969 0.44141 1.1172 1.0352 1.1094 1.4531-0.007813 0.37891-0.24219 0.74219-0.56641 1.0977 1.0977 0.11719 2.3906 0.26953 3.0312 0.40625z"/>
  <path d="m438.35 242.88-43.082 4.6211 42.219-5.8984c-0.29688-0.39453-0.58594-0.8125-0.90234-1.1445-3.1602-3.3477-13.984-12.305-41.508-16.699l-11.352 25.973c24.754 0.56641 47.164 1.293 57.137 2.1719-0.16016-3.6445-1.125-6.7031-2.5117-9.0234z"/>
  <path d="m584.94 270.43c-0.55859-0.003906-0.88672-0.097656-0.96094-0.125l-0.46875-0.16406v-4.6562l0.43359-0.17578c1.9102-0.78125 4.1289-1.8477 4.6875-2.3047-0.039062-0.28516-0.17187-0.58984-0.27344-0.83203-1.4844-0.77344-3.4414-1.7695-5.3945-2.7422-0.11328 3.5977-0.28906 10.211-0.38672 13.914l2.043-2.707z"/>
  <path d="m248.43 248.3c1.3711-0.011719 2.8203-0.019531 4.2461-0.027343 1.6367-1.1367 16.465-11.25 36.211-18.574 22.16-8.2188 45.762-12.383 70.16-12.383 26.527 0 48.77 3.082 62.629 8.6797 16.68 6.7344 24.785 15.402 24.785 26.496 0.042968 0.60156 0.96875 16.125-15.801 31.664-15.461 14.328-35.504 23.488-63.961 29.137-1.4062 2.3828-3.0781 4.9844-4.0938 6.5312 11.195-0.35156 21.898-0.72266 31.324-1.0938 21.188-0.82812 60.434-1.8242 71.133-1.5195-0.082031-1.2227-0.14062-2.4453-0.14062-3.6406 0-6.1602 0-24.914 16.422-39.633 16.066-14.398 37.559-15.574 50.766-10.543 13.566 5.1641 23.625 12.137 28.598 29.363 0.54688 1.8867 1.4766 5.7109 1.9844 10.379 9.2734-2.1602 16.332-4.8086 18.082-5.4961v-7.1445l-0.011719-0.003906 0.011719-0.45313v-0.089843h0.003906l0.34766-14.453c0-0.023438 0.003906-0.078125 0.003906-0.10547l0.003906-0.11719c0.066407-2.7383 0.33984-13.172 0.46875-16.977 0.003907-1.7734 0.35547-7.0117 0.55859-9.9961-6.2188-1.7344-13.539-3.6289-27.051-5.957-8.6953-1.293-17.574-1.9414-26.402-2.5352-8.8438-0.55078-17.699-1.0117-26.559-1.1602-17.719-0.25-35.465 0.57422-53.113 2.2734 17.629-1.9336 35.367-2.9883 53.121-2.9727 8.8789 0.03125 17.746 0.375 26.609 0.80859 6.0938 0.33203 12.18 0.76953 18.262 1.3438-20.195-5.3789-61-15.055-93.117-20.625-36.324-6.2969-60.965-8.4219-97.648-8.4219-19.297 0-37.973 2.2305-56.512 6.6641 0.015625 0.58984 0.03125 1.5547-0.023438 2.9531-0.10547 2.5859-6.4375 5.4922-24.496 13.129-11.812 4.9961-22.59 11.746-26.801 14.5z"/>
  <path d="m584.91 266.43v2.6055c0.015625 0 0.03125 0.003906 0.054688 0.003906 0.65625 0 1.9531-0.19922 3.8789-1.1523v-0.46875l0.32812-0.20312c0.78125-0.49609 1.5742-1.1836 1.6562-1.4414-0.003906-0.11328 0.003906-0.33203 0.015625-0.57422 0.023438-0.43359 0.070312-1.457-0.066406-1.6992-0.082032-0.0625-0.37109-0.22656-0.75781-0.44141 0.003907 0.046874 0.027344 0.089843 0.027344 0.13672 0 0.41016 0 1.0898-5.1367 3.2344z"/>
  <path d="m116.26 312.24c-0.5625-1.4727-0.65234-2.7539-0.65234-3.832 0-0.054687 0.039063-4.7656 1.0742-7.0703-1.6328-0.49219-5.918-1.9219-7.7344-2.5312-0.36719 3.3164-0.44922 6.1445-0.37109 8.9648 0.066406 2.5547 0.19531 4.7344 0.33984 6.4688 0.35156-0.1875 0.76953-0.375 1.3398-0.53125 1.2617-0.35547 4.4766-1.1133 6.0039-1.4688z"/>
  <path d="m259.23 248.24c11.977-0.039063 25.41 0.003906 39.613 0.13672 17.691 0.16797 52.18 0.61719 83.367 1.3203l11.434-26.164c-9.2539-1.3945-20.312-2.2812-33.559-2.2812-52.312 0-82.434 16.328-100.86 26.988z"/>
  <path d="m367.61 311.7c27.582-5.6133 47.043-14.625 62.094-28.574 16.273-15.082 15.363-30.43 15.352-30.582 0-10.512-7.8203-18.754-23.91-25.254-13.695-5.5273-35.75-8.5742-62.102-8.5742-24.23 0-47.672 4.1367-69.668 12.293-16.488 6.1133-29.488 14.168-34.168 17.246 0.41016-0.003906 0.80859-0.003906 1.2227-0.007812 18.324-10.652 48.957-28.395 103.66-28.395s73.156 15.035 77.508 19.645c4.3242 4.5781 7.3164 14.336 1.5273 26.766-3.9062 8.3789-15.445 24.305-48.863 36.848-6.9375 2.6016-14.16 4.6367-21.527 6.2812-0.22266 0.58203-0.60156 1.3633-1.125 2.3086z"/>
  <path d="m365.82 312.03c0.49609-0.85156 0.92578-1.6289 1.2383-2.2539-23.016 4.9297-47.441 5.9453-69.676 6.8555-18.305 0.74609-35.027 1.1836-45.988 1.4219-0.015626 0.48047-0.019532 1.1367 0 1.8281 24.703-0.44531 77.406-1.8516 103.78-5.9531 3.6992-0.57422 7.2031-1.2227 10.648-1.8984z"/>
  <path d="m379.89 288.6c-4.2812 7.4023-9.0664 15.668-10.559 19.199 6.9961-1.5977 13.859-3.5273 20.445-6 24.066-9.0352 41.594-22.203 48.086-36.125 2.125-4.5625 2.9961-8.7148 3.0586-12.355-7.9883-0.71484-24.289-1.332-43.434-1.8438-1.4102 6.6367-6.707 17.746-11.316 26.117-1.6641 3.0312-3.9062 6.9062-6.2812 11.008z"/>
  <path d="m250.98 252.76c-1.668 3.2266-4.1953 8.1055-4.1953 20.031 0 23.953 3.7578 40.832 4.4844 43.859 10.953-0.23438 27.707-0.67188 46.062-1.4219 22.469-0.91797 47.195-1.9375 70.367-7.0195 0.96094-2.9805 6.0234-11.75 10.98-20.312 2.3672-4.0977 4.6055-7.9609 6.2656-10.98 4.5039-8.1836 9.6641-18.98 11.109-25.484-34.203-0.89844-76.848-1.4609-97.215-1.6562-17.039-0.16016-32.977-0.19531-46.574-0.10547-0.25781 1-0.69141 1.9492-1.2852 3.0898z"/>
  <path d="m393.98 320.13c-22.133 0.86719-51.148 1.75-77.625 2.3633-6.625 0.15234-13.879 0.22266-21.082 0.22266-18.016 0-35.703-0.44141-42.465-1.1211 3.0273 1.6016 10.34 3.9453 13.52 4.957 9.4102 3 14.645 6.7266 15.68 7.5078 4.9688-0.066406 9.9727-0.13281 14.809-0.19141 26.633-0.33203 158.32-2.582 170.29-2.7852-0.42969-1.9648-1.4688-7.0703-1.9453-12.469-10.219-0.32031-49.84 0.67969-71.176 1.5156z"/>
  <path d="m250.25 321.3c-5.9883 0.10547-10.129 0.14844-11.578 0.16406-0.64062 5.9062-2.0586 11.191-2.6602 13.266 4.4141-0.066407 23.445-0.35938 43.586-0.63672-2.2695-1.4648-6.7852-4.0117-13.684-6.207-10.664-3.3984-14.73-5.0703-15.664-6.5859z"/>
  <path d="m221.5 279.21c-3.0938-2.4062-7.1797-5.207-12.328-7.3594 14.281 6.4375 24.266 20.777 24.266 37.434 0 7.2734-1.918 14.098-5.25 20.031h7.75c0.82031-3.6953 1.6562-8.6328 1.6562-13.469 0-22.383-12.312-33.699-16.094-36.637z"/>
  <path d="m514.01 273.23c-18.172 0-32.961 14.785-32.961 32.957 0 18.176 14.789 32.961 32.961 32.961 18.172 0 32.961-14.785 32.961-32.961 0-18.172-14.789-32.957-32.961-32.957z"/>
  <path d="m581.19 298.97c-1.9141 0.74609-9.0352 3.4062-18.371 5.5664 0.53516 6.3047 0.1875 13.906-3.0234 20.691 8.5469-0.44141 17.977-1.0078 20.082-1.332 2.2852-0.35156 3.6875-1.3359 4.543-3.1875 0.62109-1.3516 3.1875-7.6172 5.1953-13.492-1.4727-0.003906-2.8477-1.1992-3.7617-1.9961-1.3203-1.1484-3.8086-4.9219-4.6641-6.25z"/>
  <path d="m514.01 264.83c-22.805 0-41.359 18.555-41.359 41.359s18.555 41.359 41.359 41.359c22.805 0 41.359-18.555 41.359-41.359s-18.555-41.359-41.359-41.359zm0 75.719c-18.945 0-34.359-15.414-34.359-34.359s15.418-34.359 34.359-34.359c18.945 0 34.359 15.414 34.359 34.359s-15.414 34.359-34.359 34.359z"/>
  <path d="m587.5 292.28c-2.4961-0.69531-4.3203-1.1758-5.3281-1.4375v7.0625c0.99609 1.5586 3.4688 5.2734 4.6055 6.2617 1.4492 1.2578 2.4727 1.8867 3.3672 1.4844 1.1445-3.5 2.0039-6.6875 2.0039-8.3633 0-2.9141-1-3.9922-4.6484-5.0078z"/>
  <path d="m559.36 293.14c-4.8125-16.672-14.574-23.43-27.754-28.445-13.211-5.0312-34.398-3.1094-49.332 10.281-15.953 14.305-15.953 32.582-15.953 38.59 0 5.9258 1.1992 12.586 1.8789 15.902l9.6719-0.52344c-4.1719-6.5977-6.625-14.391-6.625-22.758 0-23.574 19.184-42.758 42.762-42.758 23.574 0 42.762 19.184 42.762 42.758 0 6.9805-1.7148 13.559-4.6953 19.383l6.2969-0.76172c5.8438-12.086 2.2734-27.227 0.98828-31.668z"/>
  <path d="m183.76 269.14c-9.7578 1.5977-17.766 5.6992-22.199 9.3555-16.266 13.816-16.164 28.996-16.109 37.148l0.003906 1.25c0 4.5039 0.83594 9.0977 2.1836 13.156h9.3633c-3.5977-6.1016-5.6992-13.188-5.6992-20.77 0-19.688 13.934-36.172 32.457-40.141z"/>
  <path d="m146.37 330.75v-0.003906c-0.93359-2.7539-1.6445-5.7422-2.0039-8.8164-1.5469 0.12891-5.707 0.43359-10.66 0.43359-2.7227 0-5.668-0.10938-8.5273-0.375 0.074219 0.1875 0.15234 0.38281 0.23438 0.57422 0.46094 1.082 1.0273 2.4297 1.0273 3.8789 0 0.34375-0.12891 0.66016-0.21094 0.99219 0.003907 0.13281-0.011718 0.24219-0.078124 0.35937-0.61328 1.8711-2.1641 3.3945-2.25 3.4727-0.13672 0.125-0.30469 0.1875-0.47656 0.1875-0.1875 0-0.37891-0.078125-0.51562-0.22266-0.26172-0.28516-0.24609-0.72656 0.039062-0.98828 0.015626-0.015625 1.2734-1.2383 1.8125-2.6562-0.67578-1.082-1.8867-1.7383-2.8906-1.9492-0.98828-0.21094-3.8984-0.48828-4.5547-0.55078-0.0625 0.027344-0.082031 0.0625-0.14844 0.089844-3.5195 1.2148-6.918 3.3477-7.0469 3.4297-0.33984 0.25-0.46094 0.46484-0.46875 0.52344 0.011718 0.023438 0.11328 0.15625 0.4375 0.30859 0.50391 0.23438 1.9102 0.75 3.5391 1.3516 2.6914 0.99219 6.043 2.2305 7.3125 2.9492 1.5352 0.87109 11.086 2.0859 27.594 2.1445-0.83594-1.5273-1.5352-3.2773-2.1602-5.1133 0-0.007813-0.003906-0.011719-0.003906-0.019531z"/>
  <path d="m116.65 323.86c1.1914-0.53125 1.5859-0.98438 1.6406-1.125-0.023438-0.003906-0.10547-0.078125-0.30469-0.17578-0.375-0.17969-0.68359-0.41406-0.96094-0.65625-4.5625 0.70312-7.8828 2.7031-9 3.4609 0.29688 0.38281 0.98438 1.0859 1.7773 1.7852 0.97266-0.59375 3.7891-2.2344 6.8477-3.2891z"/>
  <path d="m192.37 269.61c-21.871 0-39.664 17.797-39.664 39.668s17.797 39.668 39.664 39.668c21.875 0 39.668-17.797 39.668-39.668 0.003906-21.875-17.793-39.668-39.668-39.668zm0 72.332c-18.016 0-32.664-14.652-32.664-32.668s14.652-32.668 32.664-32.668c18.016 0 32.668 14.652 32.668 32.668 0.003906 18.016-14.652 32.668-32.668 32.668z"/>
  <path d="m110.75 321.04c0 0.53906-0.47266 1.0938-1.1016 1.7656 1.582-0.79297 3.7617-1.6328 6.3516-2.1289-0.078125-0.13672-0.17969-0.28906-0.22656-0.39062-3.2461-0.96094-5.3125-2.0547-6.5039-2.8906 0.007812 0.042969 0.015624 0.12109 0.023437 0.16016 0.11328 0.63281 0.44922 1.1914 0.77734 1.7344 0.34375 0.58984 0.67969 1.1445 0.67969 1.75z"/>
  <path d="m192.37 278.01c-17.238 0-31.266 14.027-31.266 31.27 0 17.238 14.027 31.27 31.266 31.27 17.242 0 31.27-14.027 31.27-31.27 0.003906-17.242-14.023-31.27-31.27-31.27z"/>
  <use x="70" y="644" xlink:href="#u"/>
  <use x="90.550781" y="644" xlink:href="#b"/>
  <use x="104.359375" y="644" xlink:href="#a"/>
  <use x="123.347656" y="644" xlink:href="#k"/>
  <use x="142.242188" y="644" xlink:href="#d"/>
  <use x="155.628906" y="644" xlink:href="#a"/>
  <use x="174.617188" y="644" xlink:href="#j"/>
  <use x="204.410156" y="644" xlink:href="#i"/>
  <use x="224.453125" y="644" xlink:href="#h"/>
  <use x="252.453125" y="644" xlink:href="#g"/>
  <use x="274.121094" y="644" xlink:href="#t"/>
  <use x="283.71875" y="644" xlink:href="#c"/>
  <use x="302.953125" y="644" xlink:href="#f"/>
  <use x="322.890625" y="644" xlink:href="#a"/>
  <use x="351.625" y="644" xlink:href="#e"/>
  <use x="363.808594" y="644" xlink:href="#c"/>
  <use x="383.046875" y="644" xlink:href="#b"/>
  <use x="396.851562" y="644" xlink:href="#a"/>
  <use x="415.84375" y="644" xlink:href="#s"/>
  <use x="434.09375" y="644" xlink:href="#a"/>
  <use x="453.085938" y="644" xlink:href="#b"/>
  <use x="70" y="672" xlink:href="#e"/>
  <use x="82.183594" y="672" xlink:href="#b"/>
  <use x="95.992188" y="672" xlink:href="#c"/>
  <use x="115.226562" y="672" xlink:href="#r"/>
  <use x="154.152344" y="672" xlink:href="#d"/>
  <use x="167.535156" y="672" xlink:href="#q"/>
  <use x="187.46875" y="672" xlink:href="#a"/>
  <use x="216.207031" y="672" xlink:href="#p"/>
  <use x="239.640625" y="672" xlink:href="#c"/>
  <use x="258.878906" y="672" xlink:href="#o"/>
  <use x="278.8125" y="672" xlink:href="#f"/>
  <use x="308.492188" y="672" xlink:href="#n"/>
  <use x="329.015625" y="672" xlink:href="#b"/>
  <use x="342.820312" y="672" xlink:href="#c"/>
  <use x="362.058594" y="672" xlink:href="#m"/>
  <use x="371.65625" y="672" xlink:href="#a"/>
  <use x="390.648438" y="672" xlink:href="#l"/>
  <use x="407.242188" y="672" xlink:href="#d"/>
 </g>
</svg>
